G04 #@! TF.FileFunction,Soldermask,Bot*
%FSLAX46Y46*%
G04 Gerber Fmt 4.6, Leading zero omitted, Abs format (unit mm)*
G04 Created by KiCad (PCBNEW 4.0.7-e2-6376~58~ubuntu16.04.1) date Fri Nov 17 11:26:19 2017*
%MOMM*%
%LPD*%
G01*
G04 APERTURE LIST*
%ADD10C,0.100000*%
%ADD11C,2.400000*%
%ADD12R,2.940000X2.940000*%
%ADD13C,2.940000*%
%ADD14C,2.398980*%
%ADD15R,2.127200X2.432000*%
%ADD16O,2.127200X2.432000*%
%ADD17O,2.940000X2.432000*%
%ADD18R,3.200000X1.500000*%
%ADD19O,3.200000X1.500000*%
%ADD20R,1.700000X1.700000*%
%ADD21C,1.700000*%
%ADD22R,2.400000X2.400000*%
%ADD23C,2.099260*%
%ADD24R,2.099260X2.099260*%
%ADD25R,2.432000X2.127200*%
%ADD26O,2.432000X2.127200*%
%ADD27C,2.000000*%
%ADD28R,2.000000X2.000000*%
G04 APERTURE END LIST*
D10*
D11*
X172212000Y-100330000D03*
X185420000Y-100330000D03*
X172212000Y-81788000D03*
X185420000Y-81788000D03*
D12*
X160360000Y-123600000D03*
D13*
X165440000Y-123600000D03*
D14*
X165735000Y-114300000D03*
X165735000Y-104140000D03*
D12*
X170540000Y-49500000D03*
D13*
X165460000Y-49500000D03*
D12*
X185465000Y-49525000D03*
D13*
X180385000Y-49525000D03*
D12*
X160580000Y-49525000D03*
D13*
X155500000Y-49525000D03*
X150420000Y-49525000D03*
D15*
X121285000Y-95250000D03*
D16*
X123825000Y-95250000D03*
X126365000Y-95250000D03*
X128905000Y-95250000D03*
D17*
X98044000Y-68580000D03*
X98044000Y-66040000D03*
X98044000Y-71120000D03*
D18*
X110300000Y-52700000D03*
D19*
X110300000Y-54700000D03*
X110300000Y-56700000D03*
X110300000Y-58700000D03*
X110300000Y-60700000D03*
X110300000Y-62700000D03*
X110300000Y-64700000D03*
X110300000Y-66700000D03*
X125300000Y-66700000D03*
X125300000Y-64700000D03*
X125300000Y-62700000D03*
X125300000Y-60700000D03*
X125300000Y-58700000D03*
X125300000Y-56700000D03*
X125300000Y-54700000D03*
X125300000Y-52700000D03*
D20*
X139065000Y-107315000D03*
D21*
X137065000Y-107315000D03*
D20*
X180340000Y-62230000D03*
D21*
X180340000Y-60230000D03*
D20*
X98552000Y-57404000D03*
D21*
X98552000Y-55404000D03*
D11*
X185417460Y-55879480D03*
D22*
X185417460Y-66039480D03*
D23*
X161035480Y-76710540D03*
D24*
X171195480Y-76710540D03*
D12*
X93460000Y-123600000D03*
D13*
X98540000Y-123600000D03*
D12*
X150360000Y-123600000D03*
D13*
X155440000Y-123600000D03*
D12*
X103460000Y-123600000D03*
D13*
X108540000Y-123600000D03*
D12*
X113360000Y-123600000D03*
D13*
X118440000Y-123600000D03*
D12*
X123360000Y-123600000D03*
D13*
X128440000Y-123600000D03*
D15*
X100965000Y-95250000D03*
D16*
X103505000Y-95250000D03*
X106045000Y-95250000D03*
X108585000Y-95250000D03*
X111125000Y-95250000D03*
X113665000Y-95250000D03*
X116205000Y-95250000D03*
X118745000Y-95250000D03*
D25*
X142240000Y-78105000D03*
D26*
X142240000Y-80645000D03*
X142240000Y-83185000D03*
X142240000Y-85725000D03*
D15*
X118745000Y-80010000D03*
D16*
X116205000Y-80010000D03*
X113665000Y-80010000D03*
X111125000Y-80010000D03*
X108585000Y-80010000D03*
X106045000Y-80010000D03*
D14*
X144780000Y-92075000D03*
X144780000Y-102235000D03*
X171000000Y-70000000D03*
X171000000Y-59840000D03*
X144780000Y-107315000D03*
X144780000Y-117475000D03*
X155575000Y-114300000D03*
X155575000Y-104140000D03*
X107315000Y-114935000D03*
X107315000Y-104775000D03*
X117475000Y-114935000D03*
X117475000Y-104775000D03*
X151130000Y-57150000D03*
X161290000Y-57150000D03*
X131445000Y-64770000D03*
X131445000Y-54610000D03*
X104140000Y-59690000D03*
X104140000Y-49530000D03*
X178308000Y-71628000D03*
X104140000Y-71628000D03*
X99060000Y-114300000D03*
X99060000Y-104140000D03*
X128905000Y-114935000D03*
X128905000Y-104775000D03*
D27*
X97155000Y-117475000D03*
X92155000Y-117475000D03*
X154305000Y-117475000D03*
X149305000Y-117475000D03*
X93472000Y-58420000D03*
X93472000Y-53420000D03*
X107315000Y-118110000D03*
X102315000Y-118110000D03*
X164465000Y-117475000D03*
X159465000Y-117475000D03*
X117475000Y-118110000D03*
X112475000Y-118110000D03*
X127635000Y-118110000D03*
X122635000Y-118110000D03*
X168910000Y-55880000D03*
X163910000Y-55880000D03*
D14*
X182880000Y-109728000D03*
D28*
X175260000Y-110236000D03*
D27*
X177260000Y-110236000D03*
M02*
