M48
;DRILL file {KiCad 4.0.7-e2-6376~58~ubuntu16.04.1} date Fri Nov 17 11:26:26 2017
;FORMAT={-:-/ absolute / inch / decimal}
FMAT,2
INCH,TZ
T1C0.026
T2C0.028
T3C0.031
T4C0.032
T5C0.039
T6C0.039
T7C0.040
T8C0.045
T9C0.060
%
G90
G05
M72
T1
X4.3622Y-2.0748
X4.3622Y-2.1535
X4.3622Y-2.2323
X4.3622Y-2.311
X4.3622Y-2.3898
X4.3622Y-2.4685
X4.3622Y-2.5472
X4.3622Y-2.626
X4.9134Y-2.0748
X4.9134Y-2.1535
X4.9134Y-2.2323
X4.9134Y-2.311
X4.9134Y-2.3898
X4.9134Y-2.4685
X4.9134Y-2.5472
X4.9134Y-2.626
T2
X6.34Y-3.0201
X6.74Y-3.0201
T3
X3.6281Y-4.625
X3.68Y-2.1031
X3.68Y-2.3
X3.825Y-4.625
X3.88Y-2.1813
X3.88Y-2.26
X4.0281Y-4.65
X4.225Y-4.65
X4.4281Y-4.65
X4.625Y-4.65
X4.8281Y-4.65
X5.025Y-4.65
X5.3963Y-4.225
X5.475Y-4.225
X5.8781Y-4.625
X6.075Y-4.625
X6.2781Y-4.625
X6.4531Y-2.2
X6.475Y-4.625
X6.65Y-2.2
X6.9Y-4.34
X6.9787Y-4.34
X7.1Y-2.3713
X7.1Y-2.45
T4
X4.1Y-2.82
X7.02Y-2.82
X7.2Y-4.32
T5
X6.35Y-2.375
X6.35Y-2.775
X6.78Y-3.22
X6.78Y-3.95
X7.2999Y-2.2
X7.2999Y-2.6
X7.3Y-3.22
X7.3Y-3.95
T6
X3.9Y-4.1
X3.9Y-4.5
X4.1Y-1.95
X4.1Y-2.35
X4.225Y-4.125
X4.225Y-4.525
X4.625Y-4.125
X4.625Y-4.525
X5.075Y-4.125
X5.075Y-4.525
X5.175Y-2.15
X5.175Y-2.55
X5.7Y-3.625
X5.7Y-4.025
X5.7Y-4.225
X5.7Y-4.625
X5.95Y-2.25
X6.125Y-4.1
X6.125Y-4.5
X6.35Y-2.25
X6.525Y-4.1
X6.525Y-4.5
X6.7323Y-2.3559
X6.7323Y-2.7559
T7
X3.975Y-3.75
X4.075Y-3.75
X4.175Y-3.15
X4.175Y-3.75
X4.275Y-3.15
X4.275Y-3.75
X4.375Y-3.15
X4.375Y-3.75
X4.475Y-3.15
X4.475Y-3.75
X4.575Y-3.15
X4.575Y-3.75
X4.675Y-3.15
X4.675Y-3.75
X4.775Y-3.75
X4.875Y-3.75
X4.975Y-3.75
X5.075Y-3.75
X5.6Y-3.075
X5.6Y-3.175
X5.6Y-3.275
X5.6Y-3.375
T8
X3.86Y-2.6
X3.86Y-2.7
X3.86Y-2.8
T9
X3.6795Y-4.8661
X3.8795Y-4.8661
X4.0732Y-4.8661
X4.2732Y-4.8661
X4.463Y-4.8661
X4.663Y-4.8661
X4.8567Y-4.8661
X5.0567Y-4.8661
X5.9197Y-4.8661
X5.922Y-1.9498
X6.1197Y-4.8661
X6.122Y-1.9498
X6.3134Y-4.8661
X6.322Y-1.9498
X6.5134Y-4.8661
X6.5142Y-1.9488
X6.7142Y-1.9488
X7.1018Y-1.9498
X7.3018Y-1.9498
T0
M30
