G04 #@! TF.FileFunction,Legend,Top*
%FSLAX46Y46*%
G04 Gerber Fmt 4.6, Leading zero omitted, Abs format (unit mm)*
G04 Created by KiCad (PCBNEW 4.0.7-e2-6376~58~ubuntu16.04.1) date Fri Nov 17 11:26:19 2017*
%MOMM*%
%LPD*%
G01*
G04 APERTURE LIST*
%ADD10C,0.100000*%
%ADD11C,0.150000*%
%ADD12C,0.152400*%
%ADD13C,0.120000*%
G04 APERTURE END LIST*
D10*
D11*
X187198000Y-102108000D02*
X170434000Y-102108000D01*
X170434000Y-102108000D02*
X170434000Y-80010000D01*
X170434000Y-80010000D02*
X187198000Y-80010000D01*
X187198000Y-80010000D02*
X187198000Y-102108000D01*
X167980000Y-126140000D02*
X157820000Y-126140000D01*
X167980000Y-127410000D02*
X167980000Y-119790000D01*
X167980000Y-119790000D02*
X157820000Y-119790000D01*
X157820000Y-119790000D02*
X157820000Y-127410000D01*
X157820000Y-127410000D02*
X167980000Y-127410000D01*
X164465000Y-111760000D02*
X164465000Y-106680000D01*
X164465000Y-106680000D02*
X167005000Y-106680000D01*
X167005000Y-106680000D02*
X167005000Y-111760000D01*
X167005000Y-111760000D02*
X164465000Y-111760000D01*
X165735000Y-111760000D02*
X165735000Y-113030000D01*
X165735000Y-106680000D02*
X165735000Y-105410000D01*
X162920000Y-46960000D02*
X173080000Y-46960000D01*
X162920000Y-45690000D02*
X162920000Y-53310000D01*
X162920000Y-53310000D02*
X173080000Y-53310000D01*
X173080000Y-53310000D02*
X173080000Y-45690000D01*
X173080000Y-45690000D02*
X162920000Y-45690000D01*
X177845000Y-46985000D02*
X188005000Y-46985000D01*
X177845000Y-45715000D02*
X177845000Y-53335000D01*
X177845000Y-53335000D02*
X188005000Y-53335000D01*
X188005000Y-53335000D02*
X188005000Y-45715000D01*
X188005000Y-45715000D02*
X177845000Y-45715000D01*
X163120000Y-45715000D02*
X163120000Y-53335000D01*
X147880000Y-45715000D02*
X147880000Y-53335000D01*
X163120000Y-46985000D02*
X147880000Y-46985000D01*
X163120000Y-53335000D02*
X147880000Y-53335000D01*
X163120000Y-45715000D02*
X147880000Y-45715000D01*
X122555000Y-96520000D02*
X130175000Y-96520000D01*
X122555000Y-93980000D02*
X130175000Y-93980000D01*
X119735000Y-93700000D02*
X121285000Y-93700000D01*
X130175000Y-96520000D02*
X130175000Y-93980000D01*
X122555000Y-93980000D02*
X122555000Y-96520000D01*
X121285000Y-96800000D02*
X119735000Y-96800000D01*
X119735000Y-96800000D02*
X119735000Y-93700000D01*
X96393000Y-63754000D02*
X99822000Y-63754000D01*
X96393000Y-73406000D02*
X99822000Y-73406000D01*
X95250000Y-63246000D02*
X95250000Y-73914000D01*
X96266000Y-66802000D02*
X94996000Y-66802000D01*
X96266000Y-70358000D02*
X94996000Y-70358000D01*
X96393000Y-73914000D02*
X96393000Y-63246000D01*
X99822000Y-63246000D02*
X99822000Y-73914000D01*
X94996000Y-73914000D02*
X99822000Y-73914000D01*
X94996000Y-63246000D02*
X99822000Y-63246000D01*
X94996000Y-63246000D02*
X94996000Y-73914000D01*
D12*
X109800000Y-46300000D02*
X125800000Y-46300000D01*
X125800000Y-46300000D02*
X125800000Y-51700000D01*
X109800000Y-46300000D02*
X109800000Y-51700000D01*
X109800000Y-67500000D02*
X109800000Y-68300000D01*
X109800000Y-68300000D02*
X125800000Y-68300000D01*
X125800000Y-68300000D02*
X125800000Y-67500000D01*
X125800000Y-46300000D02*
X109800000Y-50100000D01*
X109800000Y-46300000D02*
X125800000Y-50100000D01*
X109792000Y-50100000D02*
X125792000Y-50100000D01*
D11*
X137990000Y-109814000D02*
X137990000Y-104816000D01*
X137850000Y-109806000D02*
X137850000Y-107469000D01*
X137850000Y-107161000D02*
X137850000Y-104824000D01*
X137710000Y-109790000D02*
X137710000Y-107788000D01*
X137710000Y-106842000D02*
X137710000Y-104840000D01*
X137570000Y-109766000D02*
X137570000Y-107935000D01*
X137570000Y-106695000D02*
X137570000Y-104864000D01*
X137430000Y-109733000D02*
X137430000Y-108027000D01*
X137430000Y-106603000D02*
X137430000Y-104897000D01*
X137290000Y-109692000D02*
X137290000Y-108083000D01*
X137290000Y-106547000D02*
X137290000Y-104938000D01*
X137150000Y-109642000D02*
X137150000Y-108110000D01*
X137150000Y-106520000D02*
X137150000Y-104988000D01*
X137010000Y-109581000D02*
X137010000Y-108113000D01*
X137010000Y-106517000D02*
X137010000Y-105049000D01*
X136870000Y-109511000D02*
X136870000Y-108091000D01*
X136870000Y-106539000D02*
X136870000Y-105119000D01*
X136730000Y-109429000D02*
X136730000Y-108041000D01*
X136730000Y-106589000D02*
X136730000Y-105201000D01*
X136590000Y-109334000D02*
X136590000Y-107959000D01*
X136590000Y-106671000D02*
X136590000Y-105296000D01*
X136450000Y-109223000D02*
X136450000Y-107827000D01*
X136450000Y-106803000D02*
X136450000Y-105407000D01*
X136310000Y-109095000D02*
X136310000Y-107580000D01*
X136310000Y-107050000D02*
X136310000Y-105535000D01*
X136170000Y-108946000D02*
X136170000Y-105684000D01*
X136030000Y-108767000D02*
X136030000Y-105863000D01*
X135890000Y-108548000D02*
X135890000Y-106082000D01*
X135750000Y-108259000D02*
X135750000Y-106371000D01*
X135610000Y-107787000D02*
X135610000Y-106843000D01*
X137865000Y-107315000D02*
G75*
G03X137865000Y-107315000I-800000J0D01*
G01*
X140602500Y-107315000D02*
G75*
G03X140602500Y-107315000I-2537500J0D01*
G01*
X177841000Y-61155000D02*
X182839000Y-61155000D01*
X177849000Y-61015000D02*
X180186000Y-61015000D01*
X180494000Y-61015000D02*
X182831000Y-61015000D01*
X177865000Y-60875000D02*
X179867000Y-60875000D01*
X180813000Y-60875000D02*
X182815000Y-60875000D01*
X177889000Y-60735000D02*
X179720000Y-60735000D01*
X180960000Y-60735000D02*
X182791000Y-60735000D01*
X177922000Y-60595000D02*
X179628000Y-60595000D01*
X181052000Y-60595000D02*
X182758000Y-60595000D01*
X177963000Y-60455000D02*
X179572000Y-60455000D01*
X181108000Y-60455000D02*
X182717000Y-60455000D01*
X178013000Y-60315000D02*
X179545000Y-60315000D01*
X181135000Y-60315000D02*
X182667000Y-60315000D01*
X178074000Y-60175000D02*
X179542000Y-60175000D01*
X181138000Y-60175000D02*
X182606000Y-60175000D01*
X178144000Y-60035000D02*
X179564000Y-60035000D01*
X181116000Y-60035000D02*
X182536000Y-60035000D01*
X178226000Y-59895000D02*
X179614000Y-59895000D01*
X181066000Y-59895000D02*
X182454000Y-59895000D01*
X178321000Y-59755000D02*
X179696000Y-59755000D01*
X180984000Y-59755000D02*
X182359000Y-59755000D01*
X178432000Y-59615000D02*
X179828000Y-59615000D01*
X180852000Y-59615000D02*
X182248000Y-59615000D01*
X178560000Y-59475000D02*
X180075000Y-59475000D01*
X180605000Y-59475000D02*
X182120000Y-59475000D01*
X178709000Y-59335000D02*
X181971000Y-59335000D01*
X178888000Y-59195000D02*
X181792000Y-59195000D01*
X179107000Y-59055000D02*
X181573000Y-59055000D01*
X179396000Y-58915000D02*
X181284000Y-58915000D01*
X179868000Y-58775000D02*
X180812000Y-58775000D01*
X181140000Y-60230000D02*
G75*
G03X181140000Y-60230000I-800000J0D01*
G01*
X182877500Y-61230000D02*
G75*
G03X182877500Y-61230000I-2537500J0D01*
G01*
X96053000Y-56329000D02*
X101051000Y-56329000D01*
X96061000Y-56189000D02*
X98398000Y-56189000D01*
X98706000Y-56189000D02*
X101043000Y-56189000D01*
X96077000Y-56049000D02*
X98079000Y-56049000D01*
X99025000Y-56049000D02*
X101027000Y-56049000D01*
X96101000Y-55909000D02*
X97932000Y-55909000D01*
X99172000Y-55909000D02*
X101003000Y-55909000D01*
X96134000Y-55769000D02*
X97840000Y-55769000D01*
X99264000Y-55769000D02*
X100970000Y-55769000D01*
X96175000Y-55629000D02*
X97784000Y-55629000D01*
X99320000Y-55629000D02*
X100929000Y-55629000D01*
X96225000Y-55489000D02*
X97757000Y-55489000D01*
X99347000Y-55489000D02*
X100879000Y-55489000D01*
X96286000Y-55349000D02*
X97754000Y-55349000D01*
X99350000Y-55349000D02*
X100818000Y-55349000D01*
X96356000Y-55209000D02*
X97776000Y-55209000D01*
X99328000Y-55209000D02*
X100748000Y-55209000D01*
X96438000Y-55069000D02*
X97826000Y-55069000D01*
X99278000Y-55069000D02*
X100666000Y-55069000D01*
X96533000Y-54929000D02*
X97908000Y-54929000D01*
X99196000Y-54929000D02*
X100571000Y-54929000D01*
X96644000Y-54789000D02*
X98040000Y-54789000D01*
X99064000Y-54789000D02*
X100460000Y-54789000D01*
X96772000Y-54649000D02*
X98287000Y-54649000D01*
X98817000Y-54649000D02*
X100332000Y-54649000D01*
X96921000Y-54509000D02*
X100183000Y-54509000D01*
X97100000Y-54369000D02*
X100004000Y-54369000D01*
X97319000Y-54229000D02*
X99785000Y-54229000D01*
X97608000Y-54089000D02*
X99496000Y-54089000D01*
X98080000Y-53949000D02*
X99024000Y-53949000D01*
X99352000Y-55404000D02*
G75*
G03X99352000Y-55404000I-800000J0D01*
G01*
X101089500Y-56404000D02*
G75*
G03X101089500Y-56404000I-2537500J0D01*
G01*
X185417460Y-58673480D02*
X185417460Y-57276480D01*
X185417460Y-63118480D02*
X185417460Y-64642480D01*
X184655460Y-62737480D02*
X186179460Y-62737480D01*
X184655460Y-62991480D02*
X186179460Y-62991480D01*
X185417460Y-63245480D02*
X186179460Y-63245480D01*
X186179460Y-63245480D02*
X186179460Y-58673480D01*
X186179460Y-58673480D02*
X184655460Y-58673480D01*
X184655460Y-58673480D02*
X184655460Y-63245480D01*
X184655460Y-63245480D02*
X185417460Y-63245480D01*
X163829480Y-76710540D02*
X162432480Y-76710540D01*
X168274480Y-76710540D02*
X169798480Y-76710540D01*
X167893480Y-77472540D02*
X167893480Y-75948540D01*
X168147480Y-77472540D02*
X168147480Y-75948540D01*
X168401480Y-76710540D02*
X168401480Y-75948540D01*
X168401480Y-75948540D02*
X163829480Y-75948540D01*
X163829480Y-75948540D02*
X163829480Y-77472540D01*
X163829480Y-77472540D02*
X168401480Y-77472540D01*
X168401480Y-77472540D02*
X168401480Y-76710540D01*
X101080000Y-126140000D02*
X90920000Y-126140000D01*
X101080000Y-127410000D02*
X101080000Y-119790000D01*
X101080000Y-119790000D02*
X90920000Y-119790000D01*
X90920000Y-119790000D02*
X90920000Y-127410000D01*
X90920000Y-127410000D02*
X101080000Y-127410000D01*
X157980000Y-126140000D02*
X147820000Y-126140000D01*
X157980000Y-127410000D02*
X157980000Y-119790000D01*
X157980000Y-119790000D02*
X147820000Y-119790000D01*
X147820000Y-119790000D02*
X147820000Y-127410000D01*
X147820000Y-127410000D02*
X157980000Y-127410000D01*
X111080000Y-126140000D02*
X100920000Y-126140000D01*
X111080000Y-127410000D02*
X111080000Y-119790000D01*
X111080000Y-119790000D02*
X100920000Y-119790000D01*
X100920000Y-119790000D02*
X100920000Y-127410000D01*
X100920000Y-127410000D02*
X111080000Y-127410000D01*
X120980000Y-126140000D02*
X110820000Y-126140000D01*
X120980000Y-127410000D02*
X120980000Y-119790000D01*
X120980000Y-119790000D02*
X110820000Y-119790000D01*
X110820000Y-119790000D02*
X110820000Y-127410000D01*
X110820000Y-127410000D02*
X120980000Y-127410000D01*
X130980000Y-126140000D02*
X120820000Y-126140000D01*
X130980000Y-127410000D02*
X130980000Y-119790000D01*
X130980000Y-119790000D02*
X120820000Y-119790000D01*
X120820000Y-119790000D02*
X120820000Y-127410000D01*
X120820000Y-127410000D02*
X130980000Y-127410000D01*
X102235000Y-93980000D02*
X120015000Y-93980000D01*
X120015000Y-93980000D02*
X120015000Y-96520000D01*
X120015000Y-96520000D02*
X102235000Y-96520000D01*
X99415000Y-93700000D02*
X100965000Y-93700000D01*
X102235000Y-93980000D02*
X102235000Y-96520000D01*
X100965000Y-96800000D02*
X99415000Y-96800000D01*
X99415000Y-96800000D02*
X99415000Y-93700000D01*
X140970000Y-79375000D02*
X140970000Y-86995000D01*
X143510000Y-79375000D02*
X143510000Y-86995000D01*
X143790000Y-76555000D02*
X143790000Y-78105000D01*
X140970000Y-86995000D02*
X143510000Y-86995000D01*
X143510000Y-79375000D02*
X140970000Y-79375000D01*
X140690000Y-78105000D02*
X140690000Y-76555000D01*
X140690000Y-76555000D02*
X143790000Y-76555000D01*
X117475000Y-81280000D02*
X104775000Y-81280000D01*
X104775000Y-81280000D02*
X104775000Y-78740000D01*
X104775000Y-78740000D02*
X117475000Y-78740000D01*
X120295000Y-81560000D02*
X118745000Y-81560000D01*
X117475000Y-81280000D02*
X117475000Y-78740000D01*
X118745000Y-78460000D02*
X120295000Y-78460000D01*
X120295000Y-78460000D02*
X120295000Y-81560000D01*
X146050000Y-94615000D02*
X146050000Y-99695000D01*
X146050000Y-99695000D02*
X143510000Y-99695000D01*
X143510000Y-99695000D02*
X143510000Y-94615000D01*
X143510000Y-94615000D02*
X146050000Y-94615000D01*
X144780000Y-94615000D02*
X144780000Y-93345000D01*
X144780000Y-99695000D02*
X144780000Y-100965000D01*
X169730000Y-67460000D02*
X169730000Y-62380000D01*
X169730000Y-62380000D02*
X172270000Y-62380000D01*
X172270000Y-62380000D02*
X172270000Y-67460000D01*
X172270000Y-67460000D02*
X169730000Y-67460000D01*
X171000000Y-67460000D02*
X171000000Y-68730000D01*
X171000000Y-62380000D02*
X171000000Y-61110000D01*
X146050000Y-109855000D02*
X146050000Y-114935000D01*
X146050000Y-114935000D02*
X143510000Y-114935000D01*
X143510000Y-114935000D02*
X143510000Y-109855000D01*
X143510000Y-109855000D02*
X146050000Y-109855000D01*
X144780000Y-109855000D02*
X144780000Y-108585000D01*
X144780000Y-114935000D02*
X144780000Y-116205000D01*
X154305000Y-111760000D02*
X154305000Y-106680000D01*
X154305000Y-106680000D02*
X156845000Y-106680000D01*
X156845000Y-106680000D02*
X156845000Y-111760000D01*
X156845000Y-111760000D02*
X154305000Y-111760000D01*
X155575000Y-111760000D02*
X155575000Y-113030000D01*
X155575000Y-106680000D02*
X155575000Y-105410000D01*
X106045000Y-112395000D02*
X106045000Y-107315000D01*
X106045000Y-107315000D02*
X108585000Y-107315000D01*
X108585000Y-107315000D02*
X108585000Y-112395000D01*
X108585000Y-112395000D02*
X106045000Y-112395000D01*
X107315000Y-112395000D02*
X107315000Y-113665000D01*
X107315000Y-107315000D02*
X107315000Y-106045000D01*
X116205000Y-112395000D02*
X116205000Y-107315000D01*
X116205000Y-107315000D02*
X118745000Y-107315000D01*
X118745000Y-107315000D02*
X118745000Y-112395000D01*
X118745000Y-112395000D02*
X116205000Y-112395000D01*
X117475000Y-112395000D02*
X117475000Y-113665000D01*
X117475000Y-107315000D02*
X117475000Y-106045000D01*
X153670000Y-55880000D02*
X158750000Y-55880000D01*
X158750000Y-55880000D02*
X158750000Y-58420000D01*
X158750000Y-58420000D02*
X153670000Y-58420000D01*
X153670000Y-58420000D02*
X153670000Y-55880000D01*
X153670000Y-57150000D02*
X152400000Y-57150000D01*
X158750000Y-57150000D02*
X160020000Y-57150000D01*
X130175000Y-62230000D02*
X130175000Y-57150000D01*
X130175000Y-57150000D02*
X132715000Y-57150000D01*
X132715000Y-57150000D02*
X132715000Y-62230000D01*
X132715000Y-62230000D02*
X130175000Y-62230000D01*
X131445000Y-62230000D02*
X131445000Y-63500000D01*
X131445000Y-57150000D02*
X131445000Y-55880000D01*
X102870000Y-57150000D02*
X102870000Y-52070000D01*
X102870000Y-52070000D02*
X105410000Y-52070000D01*
X105410000Y-52070000D02*
X105410000Y-57150000D01*
X105410000Y-57150000D02*
X102870000Y-57150000D01*
X104140000Y-57150000D02*
X104140000Y-58420000D01*
X104140000Y-52070000D02*
X104140000Y-50800000D01*
X97790000Y-111760000D02*
X97790000Y-106680000D01*
X97790000Y-106680000D02*
X100330000Y-106680000D01*
X100330000Y-106680000D02*
X100330000Y-111760000D01*
X100330000Y-111760000D02*
X97790000Y-111760000D01*
X99060000Y-111760000D02*
X99060000Y-113030000D01*
X99060000Y-106680000D02*
X99060000Y-105410000D01*
X127635000Y-112395000D02*
X127635000Y-107315000D01*
X127635000Y-107315000D02*
X130175000Y-107315000D01*
X130175000Y-107315000D02*
X130175000Y-112395000D01*
X130175000Y-112395000D02*
X127635000Y-112395000D01*
X128905000Y-112395000D02*
X128905000Y-113665000D01*
X128905000Y-107315000D02*
X128905000Y-106045000D01*
D13*
X97215000Y-118785000D02*
X92095000Y-118785000D01*
X97215000Y-116165000D02*
X92095000Y-116165000D01*
X97215000Y-118785000D02*
X97215000Y-118471000D01*
X97215000Y-116479000D02*
X97215000Y-116165000D01*
X92095000Y-118785000D02*
X92095000Y-118471000D01*
X92095000Y-116479000D02*
X92095000Y-116165000D01*
X154365000Y-118785000D02*
X149245000Y-118785000D01*
X154365000Y-116165000D02*
X149245000Y-116165000D01*
X154365000Y-118785000D02*
X154365000Y-118471000D01*
X154365000Y-116479000D02*
X154365000Y-116165000D01*
X149245000Y-118785000D02*
X149245000Y-118471000D01*
X149245000Y-116479000D02*
X149245000Y-116165000D01*
X92162000Y-58480000D02*
X92162000Y-53360000D01*
X94782000Y-58480000D02*
X94782000Y-53360000D01*
X92162000Y-58480000D02*
X92476000Y-58480000D01*
X94468000Y-58480000D02*
X94782000Y-58480000D01*
X92162000Y-53360000D02*
X92476000Y-53360000D01*
X94468000Y-53360000D02*
X94782000Y-53360000D01*
X107375000Y-119420000D02*
X102255000Y-119420000D01*
X107375000Y-116800000D02*
X102255000Y-116800000D01*
X107375000Y-119420000D02*
X107375000Y-119106000D01*
X107375000Y-117114000D02*
X107375000Y-116800000D01*
X102255000Y-119420000D02*
X102255000Y-119106000D01*
X102255000Y-117114000D02*
X102255000Y-116800000D01*
X164525000Y-118785000D02*
X159405000Y-118785000D01*
X164525000Y-116165000D02*
X159405000Y-116165000D01*
X164525000Y-118785000D02*
X164525000Y-118471000D01*
X164525000Y-116479000D02*
X164525000Y-116165000D01*
X159405000Y-118785000D02*
X159405000Y-118471000D01*
X159405000Y-116479000D02*
X159405000Y-116165000D01*
X117535000Y-119420000D02*
X112415000Y-119420000D01*
X117535000Y-116800000D02*
X112415000Y-116800000D01*
X117535000Y-119420000D02*
X117535000Y-119106000D01*
X117535000Y-117114000D02*
X117535000Y-116800000D01*
X112415000Y-119420000D02*
X112415000Y-119106000D01*
X112415000Y-117114000D02*
X112415000Y-116800000D01*
X127695000Y-119420000D02*
X122575000Y-119420000D01*
X127695000Y-116800000D02*
X122575000Y-116800000D01*
X127695000Y-119420000D02*
X127695000Y-119106000D01*
X127695000Y-117114000D02*
X127695000Y-116800000D01*
X122575000Y-119420000D02*
X122575000Y-119106000D01*
X122575000Y-117114000D02*
X122575000Y-116800000D01*
X168970000Y-57190000D02*
X163850000Y-57190000D01*
X168970000Y-54570000D02*
X163850000Y-54570000D01*
X168970000Y-57190000D02*
X168970000Y-56876000D01*
X168970000Y-54884000D02*
X168970000Y-54570000D01*
X163850000Y-57190000D02*
X163850000Y-56876000D01*
X163850000Y-54884000D02*
X163850000Y-54570000D01*
X178565722Y-109056277D02*
G75*
G03X173954420Y-109056000I-2305722J-1179723D01*
G01*
X178565722Y-111415723D02*
G75*
G02X173954420Y-111416000I-2305722J1179723D01*
G01*
X178565722Y-111415723D02*
G75*
G03X178565580Y-109056000I-2305722J1179723D01*
G01*
X176260000Y-107686000D02*
X176260000Y-112786000D01*
X176300000Y-107686000D02*
X176300000Y-109256000D01*
X176300000Y-111216000D02*
X176300000Y-112786000D01*
X176340000Y-107687000D02*
X176340000Y-109256000D01*
X176340000Y-111216000D02*
X176340000Y-112785000D01*
X176380000Y-107688000D02*
X176380000Y-109256000D01*
X176380000Y-111216000D02*
X176380000Y-112784000D01*
X176420000Y-107690000D02*
X176420000Y-109256000D01*
X176420000Y-111216000D02*
X176420000Y-112782000D01*
X176460000Y-107693000D02*
X176460000Y-109256000D01*
X176460000Y-111216000D02*
X176460000Y-112779000D01*
X176500000Y-107697000D02*
X176500000Y-109256000D01*
X176500000Y-111216000D02*
X176500000Y-112775000D01*
X176540000Y-107701000D02*
X176540000Y-109256000D01*
X176540000Y-111216000D02*
X176540000Y-112771000D01*
X176580000Y-107705000D02*
X176580000Y-109256000D01*
X176580000Y-111216000D02*
X176580000Y-112767000D01*
X176620000Y-107711000D02*
X176620000Y-109256000D01*
X176620000Y-111216000D02*
X176620000Y-112761000D01*
X176660000Y-107717000D02*
X176660000Y-109256000D01*
X176660000Y-111216000D02*
X176660000Y-112755000D01*
X176700000Y-107723000D02*
X176700000Y-109256000D01*
X176700000Y-111216000D02*
X176700000Y-112749000D01*
X176740000Y-107730000D02*
X176740000Y-109256000D01*
X176740000Y-111216000D02*
X176740000Y-112742000D01*
X176780000Y-107738000D02*
X176780000Y-109256000D01*
X176780000Y-111216000D02*
X176780000Y-112734000D01*
X176820000Y-107747000D02*
X176820000Y-109256000D01*
X176820000Y-111216000D02*
X176820000Y-112725000D01*
X176860000Y-107756000D02*
X176860000Y-109256000D01*
X176860000Y-111216000D02*
X176860000Y-112716000D01*
X176900000Y-107766000D02*
X176900000Y-109256000D01*
X176900000Y-111216000D02*
X176900000Y-112706000D01*
X176940000Y-107776000D02*
X176940000Y-109256000D01*
X176940000Y-111216000D02*
X176940000Y-112696000D01*
X176981000Y-107788000D02*
X176981000Y-109256000D01*
X176981000Y-111216000D02*
X176981000Y-112684000D01*
X177021000Y-107800000D02*
X177021000Y-109256000D01*
X177021000Y-111216000D02*
X177021000Y-112672000D01*
X177061000Y-107812000D02*
X177061000Y-109256000D01*
X177061000Y-111216000D02*
X177061000Y-112660000D01*
X177101000Y-107826000D02*
X177101000Y-109256000D01*
X177101000Y-111216000D02*
X177101000Y-112646000D01*
X177141000Y-107840000D02*
X177141000Y-109256000D01*
X177141000Y-111216000D02*
X177141000Y-112632000D01*
X177181000Y-107854000D02*
X177181000Y-109256000D01*
X177181000Y-111216000D02*
X177181000Y-112618000D01*
X177221000Y-107870000D02*
X177221000Y-109256000D01*
X177221000Y-111216000D02*
X177221000Y-112602000D01*
X177261000Y-107886000D02*
X177261000Y-109256000D01*
X177261000Y-111216000D02*
X177261000Y-112586000D01*
X177301000Y-107903000D02*
X177301000Y-109256000D01*
X177301000Y-111216000D02*
X177301000Y-112569000D01*
X177341000Y-107921000D02*
X177341000Y-109256000D01*
X177341000Y-111216000D02*
X177341000Y-112551000D01*
X177381000Y-107940000D02*
X177381000Y-109256000D01*
X177381000Y-111216000D02*
X177381000Y-112532000D01*
X177421000Y-107960000D02*
X177421000Y-109256000D01*
X177421000Y-111216000D02*
X177421000Y-112512000D01*
X177461000Y-107980000D02*
X177461000Y-109256000D01*
X177461000Y-111216000D02*
X177461000Y-112492000D01*
X177501000Y-108002000D02*
X177501000Y-109256000D01*
X177501000Y-111216000D02*
X177501000Y-112470000D01*
X177541000Y-108024000D02*
X177541000Y-109256000D01*
X177541000Y-111216000D02*
X177541000Y-112448000D01*
X177581000Y-108047000D02*
X177581000Y-109256000D01*
X177581000Y-111216000D02*
X177581000Y-112425000D01*
X177621000Y-108071000D02*
X177621000Y-109256000D01*
X177621000Y-111216000D02*
X177621000Y-112401000D01*
X177661000Y-108096000D02*
X177661000Y-109256000D01*
X177661000Y-111216000D02*
X177661000Y-112376000D01*
X177701000Y-108123000D02*
X177701000Y-109256000D01*
X177701000Y-111216000D02*
X177701000Y-112349000D01*
X177741000Y-108150000D02*
X177741000Y-109256000D01*
X177741000Y-111216000D02*
X177741000Y-112322000D01*
X177781000Y-108178000D02*
X177781000Y-109256000D01*
X177781000Y-111216000D02*
X177781000Y-112294000D01*
X177821000Y-108208000D02*
X177821000Y-109256000D01*
X177821000Y-111216000D02*
X177821000Y-112264000D01*
X177861000Y-108239000D02*
X177861000Y-109256000D01*
X177861000Y-111216000D02*
X177861000Y-112233000D01*
X177901000Y-108271000D02*
X177901000Y-109256000D01*
X177901000Y-111216000D02*
X177901000Y-112201000D01*
X177941000Y-108304000D02*
X177941000Y-109256000D01*
X177941000Y-111216000D02*
X177941000Y-112168000D01*
X177981000Y-108339000D02*
X177981000Y-109256000D01*
X177981000Y-111216000D02*
X177981000Y-112133000D01*
X178021000Y-108375000D02*
X178021000Y-109256000D01*
X178021000Y-111216000D02*
X178021000Y-112097000D01*
X178061000Y-108413000D02*
X178061000Y-109256000D01*
X178061000Y-111216000D02*
X178061000Y-112059000D01*
X178101000Y-108453000D02*
X178101000Y-109256000D01*
X178101000Y-111216000D02*
X178101000Y-112019000D01*
X178141000Y-108494000D02*
X178141000Y-109256000D01*
X178141000Y-111216000D02*
X178141000Y-111978000D01*
X178181000Y-108537000D02*
X178181000Y-109256000D01*
X178181000Y-111216000D02*
X178181000Y-111935000D01*
X178221000Y-108582000D02*
X178221000Y-109256000D01*
X178221000Y-111216000D02*
X178221000Y-111890000D01*
X178261000Y-108630000D02*
X178261000Y-111842000D01*
X178301000Y-108680000D02*
X178301000Y-111792000D01*
X178341000Y-108732000D02*
X178341000Y-111740000D01*
X178381000Y-108788000D02*
X178381000Y-111684000D01*
X178421000Y-108846000D02*
X178421000Y-111626000D01*
X178461000Y-108909000D02*
X178461000Y-111563000D01*
X178501000Y-108975000D02*
X178501000Y-111497000D01*
X178541000Y-109047000D02*
X178541000Y-111425000D01*
X178581000Y-109124000D02*
X178581000Y-111348000D01*
X178621000Y-109208000D02*
X178621000Y-111264000D01*
X178661000Y-109302000D02*
X178661000Y-111170000D01*
X178701000Y-109407000D02*
X178701000Y-111065000D01*
X178741000Y-109529000D02*
X178741000Y-110943000D01*
X178781000Y-109677000D02*
X178781000Y-110795000D01*
X178821000Y-109882000D02*
X178821000Y-110590000D01*
X173060000Y-110236000D02*
X174260000Y-110236000D01*
X173660000Y-109586000D02*
X173660000Y-110886000D01*
D11*
X185380381Y-78485905D02*
X186189905Y-78485905D01*
X186285143Y-78438286D01*
X186332762Y-78390667D01*
X186380381Y-78295429D01*
X186380381Y-78104952D01*
X186332762Y-78009714D01*
X186285143Y-77962095D01*
X186189905Y-77914476D01*
X185380381Y-77914476D01*
X186380381Y-76914476D02*
X186380381Y-77485905D01*
X186380381Y-77200191D02*
X185380381Y-77200191D01*
X185523238Y-77295429D01*
X185618476Y-77390667D01*
X185666095Y-77485905D01*
X162329905Y-121356381D02*
X162329905Y-120356381D01*
X162710858Y-120356381D01*
X162806096Y-120404000D01*
X162853715Y-120451619D01*
X162901334Y-120546857D01*
X162901334Y-120689714D01*
X162853715Y-120784952D01*
X162806096Y-120832571D01*
X162710858Y-120880190D01*
X162329905Y-120880190D01*
X163758477Y-120689714D02*
X163758477Y-121356381D01*
X163520381Y-120308762D02*
X163282286Y-121023048D01*
X163901334Y-121023048D01*
X163520381Y-109386666D02*
X163044190Y-109720000D01*
X163520381Y-109958095D02*
X162520381Y-109958095D01*
X162520381Y-109577142D01*
X162568000Y-109481904D01*
X162615619Y-109434285D01*
X162710857Y-109386666D01*
X162853714Y-109386666D01*
X162948952Y-109434285D01*
X162996571Y-109481904D01*
X163044190Y-109577142D01*
X163044190Y-109958095D01*
X162520381Y-109053333D02*
X162520381Y-108386666D01*
X163520381Y-108815238D01*
X164425524Y-52776381D02*
X164425524Y-51776381D01*
X164806477Y-51776381D01*
X164901715Y-51824000D01*
X164949334Y-51871619D01*
X164996953Y-51966857D01*
X164996953Y-52109714D01*
X164949334Y-52204952D01*
X164901715Y-52252571D01*
X164806477Y-52300190D01*
X164425524Y-52300190D01*
X165949334Y-52776381D02*
X165377905Y-52776381D01*
X165663619Y-52776381D02*
X165663619Y-51776381D01*
X165568381Y-51919238D01*
X165473143Y-52014476D01*
X165377905Y-52062095D01*
X166568381Y-51776381D02*
X166663620Y-51776381D01*
X166758858Y-51824000D01*
X166806477Y-51871619D01*
X166854096Y-51966857D01*
X166901715Y-52157333D01*
X166901715Y-52395429D01*
X166854096Y-52585905D01*
X166806477Y-52681143D01*
X166758858Y-52728762D01*
X166663620Y-52776381D01*
X166568381Y-52776381D01*
X166473143Y-52728762D01*
X166425524Y-52681143D01*
X166377905Y-52585905D01*
X166330286Y-52395429D01*
X166330286Y-52157333D01*
X166377905Y-51966857D01*
X166425524Y-51871619D01*
X166473143Y-51824000D01*
X166568381Y-51776381D01*
X167282667Y-51871619D02*
X167330286Y-51824000D01*
X167425524Y-51776381D01*
X167663620Y-51776381D01*
X167758858Y-51824000D01*
X167806477Y-51871619D01*
X167854096Y-51966857D01*
X167854096Y-52062095D01*
X167806477Y-52204952D01*
X167235048Y-52776381D01*
X167854096Y-52776381D01*
X180173524Y-52776381D02*
X180173524Y-51776381D01*
X180554477Y-51776381D01*
X180649715Y-51824000D01*
X180697334Y-51871619D01*
X180744953Y-51966857D01*
X180744953Y-52109714D01*
X180697334Y-52204952D01*
X180649715Y-52252571D01*
X180554477Y-52300190D01*
X180173524Y-52300190D01*
X181697334Y-52776381D02*
X181125905Y-52776381D01*
X181411619Y-52776381D02*
X181411619Y-51776381D01*
X181316381Y-51919238D01*
X181221143Y-52014476D01*
X181125905Y-52062095D01*
X182316381Y-51776381D02*
X182411620Y-51776381D01*
X182506858Y-51824000D01*
X182554477Y-51871619D01*
X182602096Y-51966857D01*
X182649715Y-52157333D01*
X182649715Y-52395429D01*
X182602096Y-52585905D01*
X182554477Y-52681143D01*
X182506858Y-52728762D01*
X182411620Y-52776381D01*
X182316381Y-52776381D01*
X182221143Y-52728762D01*
X182173524Y-52681143D01*
X182125905Y-52585905D01*
X182078286Y-52395429D01*
X182078286Y-52157333D01*
X182125905Y-51966857D01*
X182173524Y-51871619D01*
X182221143Y-51824000D01*
X182316381Y-51776381D01*
X182983048Y-51776381D02*
X183602096Y-51776381D01*
X183268762Y-52157333D01*
X183411620Y-52157333D01*
X183506858Y-52204952D01*
X183554477Y-52252571D01*
X183602096Y-52347810D01*
X183602096Y-52585905D01*
X183554477Y-52681143D01*
X183506858Y-52728762D01*
X183411620Y-52776381D01*
X183125905Y-52776381D01*
X183030667Y-52728762D01*
X182983048Y-52681143D01*
X148677524Y-52776381D02*
X148677524Y-51776381D01*
X149058477Y-51776381D01*
X149153715Y-51824000D01*
X149201334Y-51871619D01*
X149248953Y-51966857D01*
X149248953Y-52109714D01*
X149201334Y-52204952D01*
X149153715Y-52252571D01*
X149058477Y-52300190D01*
X148677524Y-52300190D01*
X150201334Y-52776381D02*
X149629905Y-52776381D01*
X149915619Y-52776381D02*
X149915619Y-51776381D01*
X149820381Y-51919238D01*
X149725143Y-52014476D01*
X149629905Y-52062095D01*
X150820381Y-51776381D02*
X150915620Y-51776381D01*
X151010858Y-51824000D01*
X151058477Y-51871619D01*
X151106096Y-51966857D01*
X151153715Y-52157333D01*
X151153715Y-52395429D01*
X151106096Y-52585905D01*
X151058477Y-52681143D01*
X151010858Y-52728762D01*
X150915620Y-52776381D01*
X150820381Y-52776381D01*
X150725143Y-52728762D01*
X150677524Y-52681143D01*
X150629905Y-52585905D01*
X150582286Y-52395429D01*
X150582286Y-52157333D01*
X150629905Y-51966857D01*
X150677524Y-51871619D01*
X150725143Y-51824000D01*
X150820381Y-51776381D01*
X152010858Y-51776381D02*
X151820381Y-51776381D01*
X151725143Y-51824000D01*
X151677524Y-51871619D01*
X151582286Y-52014476D01*
X151534667Y-52204952D01*
X151534667Y-52585905D01*
X151582286Y-52681143D01*
X151629905Y-52728762D01*
X151725143Y-52776381D01*
X151915620Y-52776381D01*
X152010858Y-52728762D01*
X152058477Y-52681143D01*
X152106096Y-52585905D01*
X152106096Y-52347810D01*
X152058477Y-52252571D01*
X152010858Y-52204952D01*
X151915620Y-52157333D01*
X151725143Y-52157333D01*
X151629905Y-52204952D01*
X151582286Y-52252571D01*
X151534667Y-52347810D01*
X132929524Y-91892381D02*
X132929524Y-90892381D01*
X133310477Y-90892381D01*
X133405715Y-90940000D01*
X133453334Y-90987619D01*
X133500953Y-91082857D01*
X133500953Y-91225714D01*
X133453334Y-91320952D01*
X133405715Y-91368571D01*
X133310477Y-91416190D01*
X132929524Y-91416190D01*
X134453334Y-91892381D02*
X133881905Y-91892381D01*
X134167619Y-91892381D02*
X134167619Y-90892381D01*
X134072381Y-91035238D01*
X133977143Y-91130476D01*
X133881905Y-91178095D01*
X135405715Y-91892381D02*
X134834286Y-91892381D01*
X135120000Y-91892381D02*
X135120000Y-90892381D01*
X135024762Y-91035238D01*
X134929524Y-91130476D01*
X134834286Y-91178095D01*
X136358096Y-91892381D02*
X135786667Y-91892381D01*
X136072381Y-91892381D02*
X136072381Y-90892381D01*
X135977143Y-91035238D01*
X135881905Y-91130476D01*
X135786667Y-91178095D01*
X95273714Y-60148381D02*
X95273714Y-60957905D01*
X95321333Y-61053143D01*
X95368952Y-61100762D01*
X95464190Y-61148381D01*
X95654667Y-61148381D01*
X95749905Y-61100762D01*
X95797524Y-61053143D01*
X95845143Y-60957905D01*
X95845143Y-60148381D01*
X96845143Y-61148381D02*
X96273714Y-61148381D01*
X96559428Y-61148381D02*
X96559428Y-60148381D01*
X96464190Y-60291238D01*
X96368952Y-60386476D01*
X96273714Y-60434095D01*
X97464190Y-60148381D02*
X97559429Y-60148381D01*
X97654667Y-60196000D01*
X97702286Y-60243619D01*
X97749905Y-60338857D01*
X97797524Y-60529333D01*
X97797524Y-60767429D01*
X97749905Y-60957905D01*
X97702286Y-61053143D01*
X97654667Y-61100762D01*
X97559429Y-61148381D01*
X97464190Y-61148381D01*
X97368952Y-61100762D01*
X97321333Y-61053143D01*
X97273714Y-60957905D01*
X97226095Y-60767429D01*
X97226095Y-60529333D01*
X97273714Y-60338857D01*
X97321333Y-60243619D01*
X97368952Y-60196000D01*
X97464190Y-60148381D01*
X98654667Y-60481714D02*
X98654667Y-61148381D01*
X98416571Y-60100762D02*
X98178476Y-60815048D01*
X98797524Y-60815048D01*
X115085714Y-52652381D02*
X115085714Y-53461905D01*
X115133333Y-53557143D01*
X115180952Y-53604762D01*
X115276190Y-53652381D01*
X115466667Y-53652381D01*
X115561905Y-53604762D01*
X115609524Y-53557143D01*
X115657143Y-53461905D01*
X115657143Y-52652381D01*
X116657143Y-53652381D02*
X116085714Y-53652381D01*
X116371428Y-53652381D02*
X116371428Y-52652381D01*
X116276190Y-52795238D01*
X116180952Y-52890476D01*
X116085714Y-52938095D01*
X117276190Y-52652381D02*
X117371429Y-52652381D01*
X117466667Y-52700000D01*
X117514286Y-52747619D01*
X117561905Y-52842857D01*
X117609524Y-53033333D01*
X117609524Y-53271429D01*
X117561905Y-53461905D01*
X117514286Y-53557143D01*
X117466667Y-53604762D01*
X117371429Y-53652381D01*
X117276190Y-53652381D01*
X117180952Y-53604762D01*
X117133333Y-53557143D01*
X117085714Y-53461905D01*
X117038095Y-53271429D01*
X117038095Y-53033333D01*
X117085714Y-52842857D01*
X117133333Y-52747619D01*
X117180952Y-52700000D01*
X117276190Y-52652381D01*
X118561905Y-53652381D02*
X117990476Y-53652381D01*
X118276190Y-53652381D02*
X118276190Y-52652381D01*
X118180952Y-52795238D01*
X118085714Y-52890476D01*
X117990476Y-52938095D01*
X113977714Y-47752381D02*
X113977714Y-46752381D01*
X114549143Y-47752381D01*
X114549143Y-46752381D01*
X115168190Y-47752381D02*
X115072952Y-47704762D01*
X115025333Y-47657143D01*
X114977714Y-47561905D01*
X114977714Y-47276190D01*
X115025333Y-47180952D01*
X115072952Y-47133333D01*
X115168190Y-47085714D01*
X115311048Y-47085714D01*
X115406286Y-47133333D01*
X115453905Y-47180952D01*
X115501524Y-47276190D01*
X115501524Y-47561905D01*
X115453905Y-47657143D01*
X115406286Y-47704762D01*
X115311048Y-47752381D01*
X115168190Y-47752381D01*
X117263429Y-47657143D02*
X117215810Y-47704762D01*
X117072953Y-47752381D01*
X116977715Y-47752381D01*
X116834857Y-47704762D01*
X116739619Y-47609524D01*
X116692000Y-47514286D01*
X116644381Y-47323810D01*
X116644381Y-47180952D01*
X116692000Y-46990476D01*
X116739619Y-46895238D01*
X116834857Y-46800000D01*
X116977715Y-46752381D01*
X117072953Y-46752381D01*
X117215810Y-46800000D01*
X117263429Y-46847619D01*
X117834857Y-47752381D02*
X117739619Y-47704762D01*
X117692000Y-47657143D01*
X117644381Y-47561905D01*
X117644381Y-47276190D01*
X117692000Y-47180952D01*
X117739619Y-47133333D01*
X117834857Y-47085714D01*
X117977715Y-47085714D01*
X118072953Y-47133333D01*
X118120572Y-47180952D01*
X118168191Y-47276190D01*
X118168191Y-47561905D01*
X118120572Y-47657143D01*
X118072953Y-47704762D01*
X117977715Y-47752381D01*
X117834857Y-47752381D01*
X118596762Y-47085714D02*
X118596762Y-48085714D01*
X118596762Y-47133333D02*
X118692000Y-47085714D01*
X118882477Y-47085714D01*
X118977715Y-47133333D01*
X119025334Y-47180952D01*
X119072953Y-47276190D01*
X119072953Y-47561905D01*
X119025334Y-47657143D01*
X118977715Y-47704762D01*
X118882477Y-47752381D01*
X118692000Y-47752381D01*
X118596762Y-47704762D01*
X119501524Y-47085714D02*
X119501524Y-48085714D01*
X119501524Y-47133333D02*
X119596762Y-47085714D01*
X119787239Y-47085714D01*
X119882477Y-47133333D01*
X119930096Y-47180952D01*
X119977715Y-47276190D01*
X119977715Y-47561905D01*
X119930096Y-47657143D01*
X119882477Y-47704762D01*
X119787239Y-47752381D01*
X119596762Y-47752381D01*
X119501524Y-47704762D01*
X120787239Y-47704762D02*
X120692001Y-47752381D01*
X120501524Y-47752381D01*
X120406286Y-47704762D01*
X120358667Y-47609524D01*
X120358667Y-47228571D01*
X120406286Y-47133333D01*
X120501524Y-47085714D01*
X120692001Y-47085714D01*
X120787239Y-47133333D01*
X120834858Y-47228571D01*
X120834858Y-47323810D01*
X120358667Y-47419048D01*
X121263429Y-47752381D02*
X121263429Y-47085714D01*
X121263429Y-47276190D02*
X121311048Y-47180952D01*
X121358667Y-47133333D01*
X121453905Y-47085714D01*
X121549144Y-47085714D01*
X134516953Y-111609143D02*
X134469334Y-111656762D01*
X134326477Y-111704381D01*
X134231239Y-111704381D01*
X134088381Y-111656762D01*
X133993143Y-111561524D01*
X133945524Y-111466286D01*
X133897905Y-111275810D01*
X133897905Y-111132952D01*
X133945524Y-110942476D01*
X133993143Y-110847238D01*
X134088381Y-110752000D01*
X134231239Y-110704381D01*
X134326477Y-110704381D01*
X134469334Y-110752000D01*
X134516953Y-110799619D01*
X135469334Y-111704381D02*
X134897905Y-111704381D01*
X135183619Y-111704381D02*
X135183619Y-110704381D01*
X135088381Y-110847238D01*
X134993143Y-110942476D01*
X134897905Y-110990095D01*
X136088381Y-110704381D02*
X136183620Y-110704381D01*
X136278858Y-110752000D01*
X136326477Y-110799619D01*
X136374096Y-110894857D01*
X136421715Y-111085333D01*
X136421715Y-111323429D01*
X136374096Y-111513905D01*
X136326477Y-111609143D01*
X136278858Y-111656762D01*
X136183620Y-111704381D01*
X136088381Y-111704381D01*
X135993143Y-111656762D01*
X135945524Y-111609143D01*
X135897905Y-111513905D01*
X135850286Y-111323429D01*
X135850286Y-111085333D01*
X135897905Y-110894857D01*
X135945524Y-110799619D01*
X135993143Y-110752000D01*
X136088381Y-110704381D01*
X137374096Y-111704381D02*
X136802667Y-111704381D01*
X137088381Y-111704381D02*
X137088381Y-110704381D01*
X136993143Y-110847238D01*
X136897905Y-110942476D01*
X136802667Y-110990095D01*
X176897143Y-62349047D02*
X176944762Y-62396666D01*
X176992381Y-62539523D01*
X176992381Y-62634761D01*
X176944762Y-62777619D01*
X176849524Y-62872857D01*
X176754286Y-62920476D01*
X176563810Y-62968095D01*
X176420952Y-62968095D01*
X176230476Y-62920476D01*
X176135238Y-62872857D01*
X176040000Y-62777619D01*
X175992381Y-62634761D01*
X175992381Y-62539523D01*
X176040000Y-62396666D01*
X176087619Y-62349047D01*
X176992381Y-61396666D02*
X176992381Y-61968095D01*
X176992381Y-61682381D02*
X175992381Y-61682381D01*
X176135238Y-61777619D01*
X176230476Y-61872857D01*
X176278095Y-61968095D01*
X175992381Y-60777619D02*
X175992381Y-60682380D01*
X176040000Y-60587142D01*
X176087619Y-60539523D01*
X176182857Y-60491904D01*
X176373333Y-60444285D01*
X176611429Y-60444285D01*
X176801905Y-60491904D01*
X176897143Y-60539523D01*
X176944762Y-60587142D01*
X176992381Y-60682380D01*
X176992381Y-60777619D01*
X176944762Y-60872857D01*
X176897143Y-60920476D01*
X176801905Y-60968095D01*
X176611429Y-61015714D01*
X176373333Y-61015714D01*
X176182857Y-60968095D01*
X176087619Y-60920476D01*
X176040000Y-60872857D01*
X175992381Y-60777619D01*
X175992381Y-59539523D02*
X175992381Y-60015714D01*
X176468571Y-60063333D01*
X176420952Y-60015714D01*
X176373333Y-59920476D01*
X176373333Y-59682380D01*
X176420952Y-59587142D01*
X176468571Y-59539523D01*
X176563810Y-59491904D01*
X176801905Y-59491904D01*
X176897143Y-59539523D01*
X176944762Y-59587142D01*
X176992381Y-59682380D01*
X176992381Y-59920476D01*
X176944762Y-60015714D01*
X176897143Y-60063333D01*
X94845143Y-49887047D02*
X94892762Y-49934666D01*
X94940381Y-50077523D01*
X94940381Y-50172761D01*
X94892762Y-50315619D01*
X94797524Y-50410857D01*
X94702286Y-50458476D01*
X94511810Y-50506095D01*
X94368952Y-50506095D01*
X94178476Y-50458476D01*
X94083238Y-50410857D01*
X93988000Y-50315619D01*
X93940381Y-50172761D01*
X93940381Y-50077523D01*
X93988000Y-49934666D01*
X94035619Y-49887047D01*
X94940381Y-48934666D02*
X94940381Y-49506095D01*
X94940381Y-49220381D02*
X93940381Y-49220381D01*
X94083238Y-49315619D01*
X94178476Y-49410857D01*
X94226095Y-49506095D01*
X93940381Y-48315619D02*
X93940381Y-48220380D01*
X93988000Y-48125142D01*
X94035619Y-48077523D01*
X94130857Y-48029904D01*
X94321333Y-47982285D01*
X94559429Y-47982285D01*
X94749905Y-48029904D01*
X94845143Y-48077523D01*
X94892762Y-48125142D01*
X94940381Y-48220380D01*
X94940381Y-48315619D01*
X94892762Y-48410857D01*
X94845143Y-48458476D01*
X94749905Y-48506095D01*
X94559429Y-48553714D01*
X94321333Y-48553714D01*
X94130857Y-48506095D01*
X94035619Y-48458476D01*
X93988000Y-48410857D01*
X93940381Y-48315619D01*
X93940381Y-47125142D02*
X93940381Y-47315619D01*
X93988000Y-47410857D01*
X94035619Y-47458476D01*
X94178476Y-47553714D01*
X94368952Y-47601333D01*
X94749905Y-47601333D01*
X94845143Y-47553714D01*
X94892762Y-47506095D01*
X94940381Y-47410857D01*
X94940381Y-47220380D01*
X94892762Y-47125142D01*
X94845143Y-47077523D01*
X94749905Y-47029904D01*
X94511810Y-47029904D01*
X94416571Y-47077523D01*
X94368952Y-47125142D01*
X94321333Y-47220380D01*
X94321333Y-47410857D01*
X94368952Y-47506095D01*
X94416571Y-47553714D01*
X94511810Y-47601333D01*
X188409841Y-62299956D02*
X187409841Y-62299956D01*
X187409841Y-62061861D01*
X187457460Y-61919003D01*
X187552698Y-61823765D01*
X187647936Y-61776146D01*
X187838412Y-61728527D01*
X187981270Y-61728527D01*
X188171746Y-61776146D01*
X188266984Y-61823765D01*
X188362222Y-61919003D01*
X188409841Y-62061861D01*
X188409841Y-62299956D01*
X188409841Y-60776146D02*
X188409841Y-61347575D01*
X188409841Y-61061861D02*
X187409841Y-61061861D01*
X187552698Y-61157099D01*
X187647936Y-61252337D01*
X187695555Y-61347575D01*
X187409841Y-60157099D02*
X187409841Y-60061860D01*
X187457460Y-59966622D01*
X187505079Y-59919003D01*
X187600317Y-59871384D01*
X187790793Y-59823765D01*
X188028889Y-59823765D01*
X188219365Y-59871384D01*
X188314603Y-59919003D01*
X188362222Y-59966622D01*
X188409841Y-60061860D01*
X188409841Y-60157099D01*
X188362222Y-60252337D01*
X188314603Y-60299956D01*
X188219365Y-60347575D01*
X188028889Y-60395194D01*
X187790793Y-60395194D01*
X187600317Y-60347575D01*
X187505079Y-60299956D01*
X187457460Y-60252337D01*
X187409841Y-60157099D01*
X187743174Y-58966622D02*
X188409841Y-58966622D01*
X187362222Y-59204718D02*
X188076508Y-59442813D01*
X188076508Y-58823765D01*
X159853524Y-81224381D02*
X159853524Y-80224381D01*
X160091619Y-80224381D01*
X160234477Y-80272000D01*
X160329715Y-80367238D01*
X160377334Y-80462476D01*
X160424953Y-80652952D01*
X160424953Y-80795810D01*
X160377334Y-80986286D01*
X160329715Y-81081524D01*
X160234477Y-81176762D01*
X160091619Y-81224381D01*
X159853524Y-81224381D01*
X161377334Y-81224381D02*
X160805905Y-81224381D01*
X161091619Y-81224381D02*
X161091619Y-80224381D01*
X160996381Y-80367238D01*
X160901143Y-80462476D01*
X160805905Y-80510095D01*
X161996381Y-80224381D02*
X162091620Y-80224381D01*
X162186858Y-80272000D01*
X162234477Y-80319619D01*
X162282096Y-80414857D01*
X162329715Y-80605333D01*
X162329715Y-80843429D01*
X162282096Y-81033905D01*
X162234477Y-81129143D01*
X162186858Y-81176762D01*
X162091620Y-81224381D01*
X161996381Y-81224381D01*
X161901143Y-81176762D01*
X161853524Y-81129143D01*
X161805905Y-81033905D01*
X161758286Y-80843429D01*
X161758286Y-80605333D01*
X161805905Y-80414857D01*
X161853524Y-80319619D01*
X161901143Y-80272000D01*
X161996381Y-80224381D01*
X163234477Y-80224381D02*
X162758286Y-80224381D01*
X162710667Y-80700571D01*
X162758286Y-80652952D01*
X162853524Y-80605333D01*
X163091620Y-80605333D01*
X163186858Y-80652952D01*
X163234477Y-80700571D01*
X163282096Y-80795810D01*
X163282096Y-81033905D01*
X163234477Y-81129143D01*
X163186858Y-81176762D01*
X163091620Y-81224381D01*
X162853524Y-81224381D01*
X162758286Y-81176762D01*
X162710667Y-81129143D01*
X95273905Y-121356381D02*
X95273905Y-120356381D01*
X95654858Y-120356381D01*
X95750096Y-120404000D01*
X95797715Y-120451619D01*
X95845334Y-120546857D01*
X95845334Y-120689714D01*
X95797715Y-120784952D01*
X95750096Y-120832571D01*
X95654858Y-120880190D01*
X95273905Y-120880190D01*
X96797715Y-121356381D02*
X96226286Y-121356381D01*
X96512000Y-121356381D02*
X96512000Y-120356381D01*
X96416762Y-120499238D01*
X96321524Y-120594476D01*
X96226286Y-120642095D01*
X152169905Y-121356381D02*
X152169905Y-120356381D01*
X152550858Y-120356381D01*
X152646096Y-120404000D01*
X152693715Y-120451619D01*
X152741334Y-120546857D01*
X152741334Y-120689714D01*
X152693715Y-120784952D01*
X152646096Y-120832571D01*
X152550858Y-120880190D01*
X152169905Y-120880190D01*
X153122286Y-120451619D02*
X153169905Y-120404000D01*
X153265143Y-120356381D01*
X153503239Y-120356381D01*
X153598477Y-120404000D01*
X153646096Y-120451619D01*
X153693715Y-120546857D01*
X153693715Y-120642095D01*
X153646096Y-120784952D01*
X153074667Y-121356381D01*
X153693715Y-121356381D01*
X104417905Y-121356381D02*
X104417905Y-120356381D01*
X104798858Y-120356381D01*
X104894096Y-120404000D01*
X104941715Y-120451619D01*
X104989334Y-120546857D01*
X104989334Y-120689714D01*
X104941715Y-120784952D01*
X104894096Y-120832571D01*
X104798858Y-120880190D01*
X104417905Y-120880190D01*
X105322667Y-120356381D02*
X105941715Y-120356381D01*
X105608381Y-120737333D01*
X105751239Y-120737333D01*
X105846477Y-120784952D01*
X105894096Y-120832571D01*
X105941715Y-120927810D01*
X105941715Y-121165905D01*
X105894096Y-121261143D01*
X105846477Y-121308762D01*
X105751239Y-121356381D01*
X105465524Y-121356381D01*
X105370286Y-121308762D01*
X105322667Y-121261143D01*
X114577905Y-121356381D02*
X114577905Y-120356381D01*
X114958858Y-120356381D01*
X115054096Y-120404000D01*
X115101715Y-120451619D01*
X115149334Y-120546857D01*
X115149334Y-120689714D01*
X115101715Y-120784952D01*
X115054096Y-120832571D01*
X114958858Y-120880190D01*
X114577905Y-120880190D01*
X116054096Y-120356381D02*
X115577905Y-120356381D01*
X115530286Y-120832571D01*
X115577905Y-120784952D01*
X115673143Y-120737333D01*
X115911239Y-120737333D01*
X116006477Y-120784952D01*
X116054096Y-120832571D01*
X116101715Y-120927810D01*
X116101715Y-121165905D01*
X116054096Y-121261143D01*
X116006477Y-121308762D01*
X115911239Y-121356381D01*
X115673143Y-121356381D01*
X115577905Y-121308762D01*
X115530286Y-121261143D01*
X125245905Y-121356381D02*
X125245905Y-120356381D01*
X125626858Y-120356381D01*
X125722096Y-120404000D01*
X125769715Y-120451619D01*
X125817334Y-120546857D01*
X125817334Y-120689714D01*
X125769715Y-120784952D01*
X125722096Y-120832571D01*
X125626858Y-120880190D01*
X125245905Y-120880190D01*
X126674477Y-120356381D02*
X126484000Y-120356381D01*
X126388762Y-120404000D01*
X126341143Y-120451619D01*
X126245905Y-120594476D01*
X126198286Y-120784952D01*
X126198286Y-121165905D01*
X126245905Y-121261143D01*
X126293524Y-121308762D01*
X126388762Y-121356381D01*
X126579239Y-121356381D01*
X126674477Y-121308762D01*
X126722096Y-121261143D01*
X126769715Y-121165905D01*
X126769715Y-120927810D01*
X126722096Y-120832571D01*
X126674477Y-120784952D01*
X126579239Y-120737333D01*
X126388762Y-120737333D01*
X126293524Y-120784952D01*
X126245905Y-120832571D01*
X126198286Y-120927810D01*
X95781905Y-90368381D02*
X95781905Y-89368381D01*
X96162858Y-89368381D01*
X96258096Y-89416000D01*
X96305715Y-89463619D01*
X96353334Y-89558857D01*
X96353334Y-89701714D01*
X96305715Y-89796952D01*
X96258096Y-89844571D01*
X96162858Y-89892190D01*
X95781905Y-89892190D01*
X96829524Y-90368381D02*
X97020000Y-90368381D01*
X97115239Y-90320762D01*
X97162858Y-90273143D01*
X97258096Y-90130286D01*
X97305715Y-89939810D01*
X97305715Y-89558857D01*
X97258096Y-89463619D01*
X97210477Y-89416000D01*
X97115239Y-89368381D01*
X96924762Y-89368381D01*
X96829524Y-89416000D01*
X96781905Y-89463619D01*
X96734286Y-89558857D01*
X96734286Y-89796952D01*
X96781905Y-89892190D01*
X96829524Y-89939810D01*
X96924762Y-89987429D01*
X97115239Y-89987429D01*
X97210477Y-89939810D01*
X97258096Y-89892190D01*
X97305715Y-89796952D01*
X139279524Y-73477381D02*
X139279524Y-72477381D01*
X139660477Y-72477381D01*
X139755715Y-72525000D01*
X139803334Y-72572619D01*
X139850953Y-72667857D01*
X139850953Y-72810714D01*
X139803334Y-72905952D01*
X139755715Y-72953571D01*
X139660477Y-73001190D01*
X139279524Y-73001190D01*
X140803334Y-73477381D02*
X140231905Y-73477381D01*
X140517619Y-73477381D02*
X140517619Y-72477381D01*
X140422381Y-72620238D01*
X140327143Y-72715476D01*
X140231905Y-72763095D01*
X141422381Y-72477381D02*
X141517620Y-72477381D01*
X141612858Y-72525000D01*
X141660477Y-72572619D01*
X141708096Y-72667857D01*
X141755715Y-72858333D01*
X141755715Y-73096429D01*
X141708096Y-73286905D01*
X141660477Y-73382143D01*
X141612858Y-73429762D01*
X141517620Y-73477381D01*
X141422381Y-73477381D01*
X141327143Y-73429762D01*
X141279524Y-73382143D01*
X141231905Y-73286905D01*
X141184286Y-73096429D01*
X141184286Y-72858333D01*
X141231905Y-72667857D01*
X141279524Y-72572619D01*
X141327143Y-72525000D01*
X141422381Y-72477381D01*
X142231905Y-73477381D02*
X142422381Y-73477381D01*
X142517620Y-73429762D01*
X142565239Y-73382143D01*
X142660477Y-73239286D01*
X142708096Y-73048810D01*
X142708096Y-72667857D01*
X142660477Y-72572619D01*
X142612858Y-72525000D01*
X142517620Y-72477381D01*
X142327143Y-72477381D01*
X142231905Y-72525000D01*
X142184286Y-72572619D01*
X142136667Y-72667857D01*
X142136667Y-72905952D01*
X142184286Y-73001190D01*
X142231905Y-73048810D01*
X142327143Y-73096429D01*
X142517620Y-73096429D01*
X142612858Y-73048810D01*
X142660477Y-73001190D01*
X142708096Y-72905952D01*
X121753524Y-80716381D02*
X121753524Y-79716381D01*
X122134477Y-79716381D01*
X122229715Y-79764000D01*
X122277334Y-79811619D01*
X122324953Y-79906857D01*
X122324953Y-80049714D01*
X122277334Y-80144952D01*
X122229715Y-80192571D01*
X122134477Y-80240190D01*
X121753524Y-80240190D01*
X123277334Y-80716381D02*
X122705905Y-80716381D01*
X122991619Y-80716381D02*
X122991619Y-79716381D01*
X122896381Y-79859238D01*
X122801143Y-79954476D01*
X122705905Y-80002095D01*
X124229715Y-80716381D02*
X123658286Y-80716381D01*
X123944000Y-80716381D02*
X123944000Y-79716381D01*
X123848762Y-79859238D01*
X123753524Y-79954476D01*
X123658286Y-80002095D01*
X124848762Y-79716381D02*
X124944001Y-79716381D01*
X125039239Y-79764000D01*
X125086858Y-79811619D01*
X125134477Y-79906857D01*
X125182096Y-80097333D01*
X125182096Y-80335429D01*
X125134477Y-80525905D01*
X125086858Y-80621143D01*
X125039239Y-80668762D01*
X124944001Y-80716381D01*
X124848762Y-80716381D01*
X124753524Y-80668762D01*
X124705905Y-80621143D01*
X124658286Y-80525905D01*
X124610667Y-80335429D01*
X124610667Y-80097333D01*
X124658286Y-79906857D01*
X124705905Y-79811619D01*
X124753524Y-79764000D01*
X124848762Y-79716381D01*
X148732501Y-97570586D02*
X148256310Y-97903920D01*
X148732501Y-98142015D02*
X147732501Y-98142015D01*
X147732501Y-97761062D01*
X147780120Y-97665824D01*
X147827739Y-97618205D01*
X147922977Y-97570586D01*
X148065834Y-97570586D01*
X148161072Y-97618205D01*
X148208691Y-97665824D01*
X148256310Y-97761062D01*
X148256310Y-98142015D01*
X148732501Y-96618205D02*
X148732501Y-97189634D01*
X148732501Y-96903920D02*
X147732501Y-96903920D01*
X147875358Y-96999158D01*
X147970596Y-97094396D01*
X148018215Y-97189634D01*
X174696381Y-65698666D02*
X174220190Y-66032000D01*
X174696381Y-66270095D02*
X173696381Y-66270095D01*
X173696381Y-65889142D01*
X173744000Y-65793904D01*
X173791619Y-65746285D01*
X173886857Y-65698666D01*
X174029714Y-65698666D01*
X174124952Y-65746285D01*
X174172571Y-65793904D01*
X174220190Y-65889142D01*
X174220190Y-66270095D01*
X173791619Y-65317714D02*
X173744000Y-65270095D01*
X173696381Y-65174857D01*
X173696381Y-64936761D01*
X173744000Y-64841523D01*
X173791619Y-64793904D01*
X173886857Y-64746285D01*
X173982095Y-64746285D01*
X174124952Y-64793904D01*
X174696381Y-65365333D01*
X174696381Y-64746285D01*
X142692381Y-112942666D02*
X142216190Y-113276000D01*
X142692381Y-113514095D02*
X141692381Y-113514095D01*
X141692381Y-113133142D01*
X141740000Y-113037904D01*
X141787619Y-112990285D01*
X141882857Y-112942666D01*
X142025714Y-112942666D01*
X142120952Y-112990285D01*
X142168571Y-113037904D01*
X142216190Y-113133142D01*
X142216190Y-113514095D01*
X141692381Y-112609333D02*
X141692381Y-111990285D01*
X142073333Y-112323619D01*
X142073333Y-112180761D01*
X142120952Y-112085523D01*
X142168571Y-112037904D01*
X142263810Y-111990285D01*
X142501905Y-111990285D01*
X142597143Y-112037904D01*
X142644762Y-112085523D01*
X142692381Y-112180761D01*
X142692381Y-112466476D01*
X142644762Y-112561714D01*
X142597143Y-112609333D01*
X153360381Y-109386666D02*
X152884190Y-109720000D01*
X153360381Y-109958095D02*
X152360381Y-109958095D01*
X152360381Y-109577142D01*
X152408000Y-109481904D01*
X152455619Y-109434285D01*
X152550857Y-109386666D01*
X152693714Y-109386666D01*
X152788952Y-109434285D01*
X152836571Y-109481904D01*
X152884190Y-109577142D01*
X152884190Y-109958095D01*
X152360381Y-108481904D02*
X152360381Y-108958095D01*
X152836571Y-109005714D01*
X152788952Y-108958095D01*
X152741333Y-108862857D01*
X152741333Y-108624761D01*
X152788952Y-108529523D01*
X152836571Y-108481904D01*
X152931810Y-108434285D01*
X153169905Y-108434285D01*
X153265143Y-108481904D01*
X153312762Y-108529523D01*
X153360381Y-108624761D01*
X153360381Y-108862857D01*
X153312762Y-108958095D01*
X153265143Y-109005714D01*
X105608381Y-109894666D02*
X105132190Y-110228000D01*
X105608381Y-110466095D02*
X104608381Y-110466095D01*
X104608381Y-110085142D01*
X104656000Y-109989904D01*
X104703619Y-109942285D01*
X104798857Y-109894666D01*
X104941714Y-109894666D01*
X105036952Y-109942285D01*
X105084571Y-109989904D01*
X105132190Y-110085142D01*
X105132190Y-110466095D01*
X104608381Y-109037523D02*
X104608381Y-109228000D01*
X104656000Y-109323238D01*
X104703619Y-109370857D01*
X104846476Y-109466095D01*
X105036952Y-109513714D01*
X105417905Y-109513714D01*
X105513143Y-109466095D01*
X105560762Y-109418476D01*
X105608381Y-109323238D01*
X105608381Y-109132761D01*
X105560762Y-109037523D01*
X105513143Y-108989904D01*
X105417905Y-108942285D01*
X105179810Y-108942285D01*
X105084571Y-108989904D01*
X105036952Y-109037523D01*
X104989333Y-109132761D01*
X104989333Y-109323238D01*
X105036952Y-109418476D01*
X105084571Y-109466095D01*
X105179810Y-109513714D01*
X115768381Y-109894666D02*
X115292190Y-110228000D01*
X115768381Y-110466095D02*
X114768381Y-110466095D01*
X114768381Y-110085142D01*
X114816000Y-109989904D01*
X114863619Y-109942285D01*
X114958857Y-109894666D01*
X115101714Y-109894666D01*
X115196952Y-109942285D01*
X115244571Y-109989904D01*
X115292190Y-110085142D01*
X115292190Y-110466095D01*
X115196952Y-109323238D02*
X115149333Y-109418476D01*
X115101714Y-109466095D01*
X115006476Y-109513714D01*
X114958857Y-109513714D01*
X114863619Y-109466095D01*
X114816000Y-109418476D01*
X114768381Y-109323238D01*
X114768381Y-109132761D01*
X114816000Y-109037523D01*
X114863619Y-108989904D01*
X114958857Y-108942285D01*
X115006476Y-108942285D01*
X115101714Y-108989904D01*
X115149333Y-109037523D01*
X115196952Y-109132761D01*
X115196952Y-109323238D01*
X115244571Y-109418476D01*
X115292190Y-109466095D01*
X115387429Y-109513714D01*
X115577905Y-109513714D01*
X115673143Y-109466095D01*
X115720762Y-109418476D01*
X115768381Y-109323238D01*
X115768381Y-109132761D01*
X115720762Y-109037523D01*
X115673143Y-108989904D01*
X115577905Y-108942285D01*
X115387429Y-108942285D01*
X115292190Y-108989904D01*
X115244571Y-109037523D01*
X115196952Y-109132761D01*
X156043334Y-60777381D02*
X155710000Y-60301190D01*
X155471905Y-60777381D02*
X155471905Y-59777381D01*
X155852858Y-59777381D01*
X155948096Y-59825000D01*
X155995715Y-59872619D01*
X156043334Y-59967857D01*
X156043334Y-60110714D01*
X155995715Y-60205952D01*
X155948096Y-60253571D01*
X155852858Y-60301190D01*
X155471905Y-60301190D01*
X156519524Y-60777381D02*
X156710000Y-60777381D01*
X156805239Y-60729762D01*
X156852858Y-60682143D01*
X156948096Y-60539286D01*
X156995715Y-60348810D01*
X156995715Y-59967857D01*
X156948096Y-59872619D01*
X156900477Y-59825000D01*
X156805239Y-59777381D01*
X156614762Y-59777381D01*
X156519524Y-59825000D01*
X156471905Y-59872619D01*
X156424286Y-59967857D01*
X156424286Y-60205952D01*
X156471905Y-60301190D01*
X156519524Y-60348810D01*
X156614762Y-60396429D01*
X156805239Y-60396429D01*
X156900477Y-60348810D01*
X156948096Y-60301190D01*
X156995715Y-60205952D01*
X134564381Y-60555047D02*
X134088190Y-60888381D01*
X134564381Y-61126476D02*
X133564381Y-61126476D01*
X133564381Y-60745523D01*
X133612000Y-60650285D01*
X133659619Y-60602666D01*
X133754857Y-60555047D01*
X133897714Y-60555047D01*
X133992952Y-60602666D01*
X134040571Y-60650285D01*
X134088190Y-60745523D01*
X134088190Y-61126476D01*
X134564381Y-59602666D02*
X134564381Y-60174095D01*
X134564381Y-59888381D02*
X133564381Y-59888381D01*
X133707238Y-59983619D01*
X133802476Y-60078857D01*
X133850095Y-60174095D01*
X133564381Y-58983619D02*
X133564381Y-58888380D01*
X133612000Y-58793142D01*
X133659619Y-58745523D01*
X133754857Y-58697904D01*
X133945333Y-58650285D01*
X134183429Y-58650285D01*
X134373905Y-58697904D01*
X134469143Y-58745523D01*
X134516762Y-58793142D01*
X134564381Y-58888380D01*
X134564381Y-58983619D01*
X134516762Y-59078857D01*
X134469143Y-59126476D01*
X134373905Y-59174095D01*
X134183429Y-59221714D01*
X133945333Y-59221714D01*
X133754857Y-59174095D01*
X133659619Y-59126476D01*
X133612000Y-59078857D01*
X133564381Y-58983619D01*
X133564381Y-57745523D02*
X133564381Y-58221714D01*
X134040571Y-58269333D01*
X133992952Y-58221714D01*
X133945333Y-58126476D01*
X133945333Y-57888380D01*
X133992952Y-57793142D01*
X134040571Y-57745523D01*
X134135810Y-57697904D01*
X134373905Y-57697904D01*
X134469143Y-57745523D01*
X134516762Y-57793142D01*
X134564381Y-57888380D01*
X134564381Y-58126476D01*
X134516762Y-58221714D01*
X134469143Y-58269333D01*
X107452381Y-55119047D02*
X106976190Y-55452381D01*
X107452381Y-55690476D02*
X106452381Y-55690476D01*
X106452381Y-55309523D01*
X106500000Y-55214285D01*
X106547619Y-55166666D01*
X106642857Y-55119047D01*
X106785714Y-55119047D01*
X106880952Y-55166666D01*
X106928571Y-55214285D01*
X106976190Y-55309523D01*
X106976190Y-55690476D01*
X107452381Y-54166666D02*
X107452381Y-54738095D01*
X107452381Y-54452381D02*
X106452381Y-54452381D01*
X106595238Y-54547619D01*
X106690476Y-54642857D01*
X106738095Y-54738095D01*
X106452381Y-53547619D02*
X106452381Y-53452380D01*
X106500000Y-53357142D01*
X106547619Y-53309523D01*
X106642857Y-53261904D01*
X106833333Y-53214285D01*
X107071429Y-53214285D01*
X107261905Y-53261904D01*
X107357143Y-53309523D01*
X107404762Y-53357142D01*
X107452381Y-53452380D01*
X107452381Y-53547619D01*
X107404762Y-53642857D01*
X107357143Y-53690476D01*
X107261905Y-53738095D01*
X107071429Y-53785714D01*
X106833333Y-53785714D01*
X106642857Y-53738095D01*
X106547619Y-53690476D01*
X106500000Y-53642857D01*
X106452381Y-53547619D01*
X106452381Y-52357142D02*
X106452381Y-52547619D01*
X106500000Y-52642857D01*
X106547619Y-52690476D01*
X106690476Y-52785714D01*
X106880952Y-52833333D01*
X107261905Y-52833333D01*
X107357143Y-52785714D01*
X107404762Y-52738095D01*
X107452381Y-52642857D01*
X107452381Y-52452380D01*
X107404762Y-52357142D01*
X107357143Y-52309523D01*
X107261905Y-52261904D01*
X107023810Y-52261904D01*
X106928571Y-52309523D01*
X106880952Y-52357142D01*
X106833333Y-52452380D01*
X106833333Y-52642857D01*
X106880952Y-52738095D01*
X106928571Y-52785714D01*
X107023810Y-52833333D01*
X176450857Y-68540381D02*
X176688952Y-69540381D01*
X176879429Y-68826095D01*
X177069905Y-69540381D01*
X177308000Y-68540381D01*
X178212762Y-69540381D02*
X177641333Y-69540381D01*
X177927047Y-69540381D02*
X177927047Y-68540381D01*
X177831809Y-68683238D01*
X177736571Y-68778476D01*
X177641333Y-68826095D01*
X178831809Y-68540381D02*
X178927048Y-68540381D01*
X179022286Y-68588000D01*
X179069905Y-68635619D01*
X179117524Y-68730857D01*
X179165143Y-68921333D01*
X179165143Y-69159429D01*
X179117524Y-69349905D01*
X179069905Y-69445143D01*
X179022286Y-69492762D01*
X178927048Y-69540381D01*
X178831809Y-69540381D01*
X178736571Y-69492762D01*
X178688952Y-69445143D01*
X178641333Y-69349905D01*
X178593714Y-69159429D01*
X178593714Y-68921333D01*
X178641333Y-68730857D01*
X178688952Y-68635619D01*
X178736571Y-68588000D01*
X178831809Y-68540381D01*
X180117524Y-69540381D02*
X179546095Y-69540381D01*
X179831809Y-69540381D02*
X179831809Y-68540381D01*
X179736571Y-68683238D01*
X179641333Y-68778476D01*
X179546095Y-68826095D01*
X102536857Y-75906381D02*
X102774952Y-76906381D01*
X102965429Y-76192095D01*
X103155905Y-76906381D01*
X103394000Y-75906381D01*
X104298762Y-76906381D02*
X103727333Y-76906381D01*
X104013047Y-76906381D02*
X104013047Y-75906381D01*
X103917809Y-76049238D01*
X103822571Y-76144476D01*
X103727333Y-76192095D01*
X104917809Y-75906381D02*
X105013048Y-75906381D01*
X105108286Y-75954000D01*
X105155905Y-76001619D01*
X105203524Y-76096857D01*
X105251143Y-76287333D01*
X105251143Y-76525429D01*
X105203524Y-76715905D01*
X105155905Y-76811143D01*
X105108286Y-76858762D01*
X105013048Y-76906381D01*
X104917809Y-76906381D01*
X104822571Y-76858762D01*
X104774952Y-76811143D01*
X104727333Y-76715905D01*
X104679714Y-76525429D01*
X104679714Y-76287333D01*
X104727333Y-76096857D01*
X104774952Y-76001619D01*
X104822571Y-75954000D01*
X104917809Y-75906381D01*
X105632095Y-76001619D02*
X105679714Y-75954000D01*
X105774952Y-75906381D01*
X106013048Y-75906381D01*
X106108286Y-75954000D01*
X106155905Y-76001619D01*
X106203524Y-76096857D01*
X106203524Y-76192095D01*
X106155905Y-76334952D01*
X105584476Y-76906381D01*
X106203524Y-76906381D01*
X96972381Y-109386666D02*
X96496190Y-109720000D01*
X96972381Y-109958095D02*
X95972381Y-109958095D01*
X95972381Y-109577142D01*
X96020000Y-109481904D01*
X96067619Y-109434285D01*
X96162857Y-109386666D01*
X96305714Y-109386666D01*
X96400952Y-109434285D01*
X96448571Y-109481904D01*
X96496190Y-109577142D01*
X96496190Y-109958095D01*
X96305714Y-108529523D02*
X96972381Y-108529523D01*
X95924762Y-108767619D02*
X96639048Y-109005714D01*
X96639048Y-108386666D01*
X126944381Y-109862857D02*
X126468190Y-110196191D01*
X126944381Y-110434286D02*
X125944381Y-110434286D01*
X125944381Y-110053333D01*
X125992000Y-109958095D01*
X126039619Y-109910476D01*
X126134857Y-109862857D01*
X126277714Y-109862857D01*
X126372952Y-109910476D01*
X126420571Y-109958095D01*
X126468190Y-110053333D01*
X126468190Y-110434286D01*
X126944381Y-108910476D02*
X126944381Y-109481905D01*
X126944381Y-109196191D02*
X125944381Y-109196191D01*
X126087238Y-109291429D01*
X126182476Y-109386667D01*
X126230095Y-109481905D01*
X126039619Y-108529524D02*
X125992000Y-108481905D01*
X125944381Y-108386667D01*
X125944381Y-108148571D01*
X125992000Y-108053333D01*
X126039619Y-108005714D01*
X126134857Y-107958095D01*
X126230095Y-107958095D01*
X126372952Y-108005714D01*
X126944381Y-108577143D01*
X126944381Y-107958095D01*
X93813334Y-113641143D02*
X93765715Y-113688762D01*
X93622858Y-113736381D01*
X93527620Y-113736381D01*
X93384762Y-113688762D01*
X93289524Y-113593524D01*
X93241905Y-113498286D01*
X93194286Y-113307810D01*
X93194286Y-113164952D01*
X93241905Y-112974476D01*
X93289524Y-112879238D01*
X93384762Y-112784000D01*
X93527620Y-112736381D01*
X93622858Y-112736381D01*
X93765715Y-112784000D01*
X93813334Y-112831619D01*
X94765715Y-113736381D02*
X94194286Y-113736381D01*
X94480000Y-113736381D02*
X94480000Y-112736381D01*
X94384762Y-112879238D01*
X94289524Y-112974476D01*
X94194286Y-113022095D01*
X151725334Y-113641143D02*
X151677715Y-113688762D01*
X151534858Y-113736381D01*
X151439620Y-113736381D01*
X151296762Y-113688762D01*
X151201524Y-113593524D01*
X151153905Y-113498286D01*
X151106286Y-113307810D01*
X151106286Y-113164952D01*
X151153905Y-112974476D01*
X151201524Y-112879238D01*
X151296762Y-112784000D01*
X151439620Y-112736381D01*
X151534858Y-112736381D01*
X151677715Y-112784000D01*
X151725334Y-112831619D01*
X152106286Y-112831619D02*
X152153905Y-112784000D01*
X152249143Y-112736381D01*
X152487239Y-112736381D01*
X152582477Y-112784000D01*
X152630096Y-112831619D01*
X152677715Y-112926857D01*
X152677715Y-113022095D01*
X152630096Y-113164952D01*
X152058667Y-113736381D01*
X152677715Y-113736381D01*
X92813143Y-49950666D02*
X92860762Y-49998285D01*
X92908381Y-50141142D01*
X92908381Y-50236380D01*
X92860762Y-50379238D01*
X92765524Y-50474476D01*
X92670286Y-50522095D01*
X92479810Y-50569714D01*
X92336952Y-50569714D01*
X92146476Y-50522095D01*
X92051238Y-50474476D01*
X91956000Y-50379238D01*
X91908381Y-50236380D01*
X91908381Y-50141142D01*
X91956000Y-49998285D01*
X92003619Y-49950666D01*
X91908381Y-49617333D02*
X91908381Y-48998285D01*
X92289333Y-49331619D01*
X92289333Y-49188761D01*
X92336952Y-49093523D01*
X92384571Y-49045904D01*
X92479810Y-48998285D01*
X92717905Y-48998285D01*
X92813143Y-49045904D01*
X92860762Y-49093523D01*
X92908381Y-49188761D01*
X92908381Y-49474476D01*
X92860762Y-49569714D01*
X92813143Y-49617333D01*
X103973334Y-114149143D02*
X103925715Y-114196762D01*
X103782858Y-114244381D01*
X103687620Y-114244381D01*
X103544762Y-114196762D01*
X103449524Y-114101524D01*
X103401905Y-114006286D01*
X103354286Y-113815810D01*
X103354286Y-113672952D01*
X103401905Y-113482476D01*
X103449524Y-113387238D01*
X103544762Y-113292000D01*
X103687620Y-113244381D01*
X103782858Y-113244381D01*
X103925715Y-113292000D01*
X103973334Y-113339619D01*
X104830477Y-113577714D02*
X104830477Y-114244381D01*
X104592381Y-113196762D02*
X104354286Y-113911048D01*
X104973334Y-113911048D01*
X161885334Y-113641143D02*
X161837715Y-113688762D01*
X161694858Y-113736381D01*
X161599620Y-113736381D01*
X161456762Y-113688762D01*
X161361524Y-113593524D01*
X161313905Y-113498286D01*
X161266286Y-113307810D01*
X161266286Y-113164952D01*
X161313905Y-112974476D01*
X161361524Y-112879238D01*
X161456762Y-112784000D01*
X161599620Y-112736381D01*
X161694858Y-112736381D01*
X161837715Y-112784000D01*
X161885334Y-112831619D01*
X162790096Y-112736381D02*
X162313905Y-112736381D01*
X162266286Y-113212571D01*
X162313905Y-113164952D01*
X162409143Y-113117333D01*
X162647239Y-113117333D01*
X162742477Y-113164952D01*
X162790096Y-113212571D01*
X162837715Y-113307810D01*
X162837715Y-113545905D01*
X162790096Y-113641143D01*
X162742477Y-113688762D01*
X162647239Y-113736381D01*
X162409143Y-113736381D01*
X162313905Y-113688762D01*
X162266286Y-113641143D01*
X114641334Y-114149143D02*
X114593715Y-114196762D01*
X114450858Y-114244381D01*
X114355620Y-114244381D01*
X114212762Y-114196762D01*
X114117524Y-114101524D01*
X114069905Y-114006286D01*
X114022286Y-113815810D01*
X114022286Y-113672952D01*
X114069905Y-113482476D01*
X114117524Y-113387238D01*
X114212762Y-113292000D01*
X114355620Y-113244381D01*
X114450858Y-113244381D01*
X114593715Y-113292000D01*
X114641334Y-113339619D01*
X115498477Y-113244381D02*
X115308000Y-113244381D01*
X115212762Y-113292000D01*
X115165143Y-113339619D01*
X115069905Y-113482476D01*
X115022286Y-113672952D01*
X115022286Y-114053905D01*
X115069905Y-114149143D01*
X115117524Y-114196762D01*
X115212762Y-114244381D01*
X115403239Y-114244381D01*
X115498477Y-114196762D01*
X115546096Y-114149143D01*
X115593715Y-114053905D01*
X115593715Y-113815810D01*
X115546096Y-113720571D01*
X115498477Y-113672952D01*
X115403239Y-113625333D01*
X115212762Y-113625333D01*
X115117524Y-113672952D01*
X115069905Y-113720571D01*
X115022286Y-113815810D01*
X124801334Y-114149143D02*
X124753715Y-114196762D01*
X124610858Y-114244381D01*
X124515620Y-114244381D01*
X124372762Y-114196762D01*
X124277524Y-114101524D01*
X124229905Y-114006286D01*
X124182286Y-113815810D01*
X124182286Y-113672952D01*
X124229905Y-113482476D01*
X124277524Y-113387238D01*
X124372762Y-113292000D01*
X124515620Y-113244381D01*
X124610858Y-113244381D01*
X124753715Y-113292000D01*
X124801334Y-113339619D01*
X125134667Y-113244381D02*
X125801334Y-113244381D01*
X125372762Y-114244381D01*
X164425334Y-60809143D02*
X164377715Y-60856762D01*
X164234858Y-60904381D01*
X164139620Y-60904381D01*
X163996762Y-60856762D01*
X163901524Y-60761524D01*
X163853905Y-60666286D01*
X163806286Y-60475810D01*
X163806286Y-60332952D01*
X163853905Y-60142476D01*
X163901524Y-60047238D01*
X163996762Y-59952000D01*
X164139620Y-59904381D01*
X164234858Y-59904381D01*
X164377715Y-59952000D01*
X164425334Y-59999619D01*
X164996762Y-60332952D02*
X164901524Y-60285333D01*
X164853905Y-60237714D01*
X164806286Y-60142476D01*
X164806286Y-60094857D01*
X164853905Y-59999619D01*
X164901524Y-59952000D01*
X164996762Y-59904381D01*
X165187239Y-59904381D01*
X165282477Y-59952000D01*
X165330096Y-59999619D01*
X165377715Y-60094857D01*
X165377715Y-60142476D01*
X165330096Y-60237714D01*
X165282477Y-60285333D01*
X165187239Y-60332952D01*
X164996762Y-60332952D01*
X164901524Y-60380571D01*
X164853905Y-60428190D01*
X164806286Y-60523429D01*
X164806286Y-60713905D01*
X164853905Y-60809143D01*
X164901524Y-60856762D01*
X164996762Y-60904381D01*
X165187239Y-60904381D01*
X165282477Y-60856762D01*
X165330096Y-60809143D01*
X165377715Y-60713905D01*
X165377715Y-60523429D01*
X165330096Y-60428190D01*
X165282477Y-60380571D01*
X165187239Y-60332952D01*
X183562857Y-106640381D02*
X183800952Y-107640381D01*
X183991429Y-106926095D01*
X184181905Y-107640381D01*
X184420000Y-106640381D01*
X185324762Y-107640381D02*
X184753333Y-107640381D01*
X185039047Y-107640381D02*
X185039047Y-106640381D01*
X184943809Y-106783238D01*
X184848571Y-106878476D01*
X184753333Y-106926095D01*
X185943809Y-106640381D02*
X186039048Y-106640381D01*
X186134286Y-106688000D01*
X186181905Y-106735619D01*
X186229524Y-106830857D01*
X186277143Y-107021333D01*
X186277143Y-107259429D01*
X186229524Y-107449905D01*
X186181905Y-107545143D01*
X186134286Y-107592762D01*
X186039048Y-107640381D01*
X185943809Y-107640381D01*
X185848571Y-107592762D01*
X185800952Y-107545143D01*
X185753333Y-107449905D01*
X185705714Y-107259429D01*
X185705714Y-107021333D01*
X185753333Y-106830857D01*
X185800952Y-106735619D01*
X185848571Y-106688000D01*
X185943809Y-106640381D01*
X186610476Y-106640381D02*
X187229524Y-106640381D01*
X186896190Y-107021333D01*
X187039048Y-107021333D01*
X187134286Y-107068952D01*
X187181905Y-107116571D01*
X187229524Y-107211810D01*
X187229524Y-107449905D01*
X187181905Y-107545143D01*
X187134286Y-107592762D01*
X187039048Y-107640381D01*
X186753333Y-107640381D01*
X186658095Y-107592762D01*
X186610476Y-107545143D01*
X176093334Y-106783143D02*
X176045715Y-106830762D01*
X175902858Y-106878381D01*
X175807620Y-106878381D01*
X175664762Y-106830762D01*
X175569524Y-106735524D01*
X175521905Y-106640286D01*
X175474286Y-106449810D01*
X175474286Y-106306952D01*
X175521905Y-106116476D01*
X175569524Y-106021238D01*
X175664762Y-105926000D01*
X175807620Y-105878381D01*
X175902858Y-105878381D01*
X176045715Y-105926000D01*
X176093334Y-105973619D01*
X176569524Y-106878381D02*
X176760000Y-106878381D01*
X176855239Y-106830762D01*
X176902858Y-106783143D01*
X176998096Y-106640286D01*
X177045715Y-106449810D01*
X177045715Y-106068857D01*
X176998096Y-105973619D01*
X176950477Y-105926000D01*
X176855239Y-105878381D01*
X176664762Y-105878381D01*
X176569524Y-105926000D01*
X176521905Y-105973619D01*
X176474286Y-106068857D01*
X176474286Y-106306952D01*
X176521905Y-106402190D01*
X176569524Y-106449810D01*
X176664762Y-106497429D01*
X176855239Y-106497429D01*
X176950477Y-106449810D01*
X176998096Y-106402190D01*
X177045715Y-106306952D01*
M02*
